<svg xmlns="http://www.w3.org/2000/svg" width="64" height="64" viewBox="0 0 64 64">
  <defs>
    <linearGradient id="beanGradient64" x1="0%" y1="0%" x2="100%" y2="100%">
      <stop offset="0%" stop-color="#ff9a3d" />
      <stop offset="100%" stop-color="#dd6c10" />
    </linearGradient>
    <linearGradient id="bg64" x1="10%" y1="0%" x2="100%" y2="100%">
      <stop offset="0%" stop-color="#7c492d" />
      <stop offset="100%" stop-color="#3f2316" />
    </linearGradient>
  </defs>
  <rect x="8" y="10" width="48" height="48" rx="16" fill="url(#bg64)" />
  <path d="M20 27h24v4c0 8.3-5.4 14-12 14s-12-5.7-12-14v-4z" fill="#ffffff" />
  <path
    d="M42 29h4.8c2.9 0 5.2 2.4 5.2 5.3s-2.3 5.3-5.2 5.3h-2.3"
    fill="none"
    stroke="#ffffff"
    stroke-width="3"
    stroke-linecap="round"
  />
  <path d="M26.4 20.2c2.8-2 6.4-2 9.2 0-2.8 2-6.4 2-9.2 0z" fill="url(#beanGradient64)" />
  <path d="M31 18.5c-1 1.1-1 2.6 0 3.7" stroke="#5c341f" stroke-width="1.4" stroke-linecap="round" />
</svg>
